<?xml version="1.0" standalone="no"?>
<!DOCTYPE svg PUBLIC "-//W3C//DTD SVG 20010904//EN"
 "http://www.w3.org/TR/2001/REC-SVG-20010904/DTD/svg10.dtd">
<svg version="1.0" xmlns="http://www.w3.org/2000/svg"
 width="1152.000000pt" height="1152.000000pt" viewBox="0 0 1152.000000 1152.000000"
 preserveAspectRatio="xMidYMid meet">
<metadata>
Created by potrace 1.11, written by Peter Selinger 2001-2013
</metadata>
<g transform="translate(0.000000,1152.000000) scale(0.100000,-0.100000)"
fill="#000000" stroke="none">
<path d="M3706 9230 l-49 -5 0 -1277 c0 -923 -3 -1276 -11 -1271 -6 3 -24 16
-41 27 -106 74 -353 194 -431 209 -10 2 -26 7 -34 10 -22 9 -219 48 -265 53
-22 2 -53 6 -70 9 -16 3 -93 7 -170 10 -77 3 -140 5 -140 6 0 0 -15 2 -32 3
-18 2 -31 1 -29 -3 2 -3 -28 -6 -67 -7 -72 0 -185 -9 -242 -19 -16 -2 -48 -7
-70 -10 -44 -6 -80 -13 -80 -15 0 -1 -11 -4 -24 -6 -14 -2 -52 -12 -85 -20
-34 -9 -68 -17 -76 -19 -25 -5 -192 -66 -240 -87 -144 -63 -341 -173 -405
-225 -5 -4 -42 -33 -82 -63 -84 -63 -323 -304 -323 -325 0 -4 -6 -12 -13 -20
-7 -7 -36 -46 -63 -86 -27 -41 -52 -76 -55 -79 -22 -18 -207 -404 -213 -445
-1 -5 -4 -14 -7 -20 -3 -5 -11 -30 -18 -55 -7 -25 -18 -56 -24 -70 -5 -14 -11
-32 -12 -40 -2 -8 -8 -37 -15 -65 -18 -75 -20 -86 -31 -140 -10 -53 -12 -66
-24 -155 -36 -263 -36 -624 0 -880 16 -117 25 -170 36 -220 5 -25 11 -54 13
-65 19 -97 98 -345 144 -445 70 -157 131 -272 173 -332 10 -14 19 -29 19 -32
0 -3 35 -52 77 -108 83 -112 273 -306 368 -378 33 -25 62 -48 63 -52 2 -5 8
-8 14 -8 6 0 31 -15 57 -33 54 -39 153 -96 162 -94 4 1 15 -5 25 -14 22 -18
167 -81 269 -116 74 -25 276 -78 335 -87 19 -3 46 -8 60 -10 23 -4 61 -9 190
-21 54 -5 298 -5 355 0 79 7 198 22 203 25 3 3 6 4 57 14 128 25 435 158 496
214 12 12 26 19 31 16 4 -3 8 -1 8 3 0 5 27 28 60 52 33 24 75 58 93 75 18 17
45 41 59 54 l25 23 1 -173 c0 -95 1 -181 1 -190 1 -17 44 -18 760 -18 l758 0
1 373 c0 204 -2 379 -4 387 -3 13 -47 15 -335 15 -182 0 -334 2 -339 5 -4 3
-7 1229 -6 2725 l1 2720 313 0 c171 0 313 2 313 5 1 3 3 177 4 388 l1 382 -25
1 c-185 3 -1359 3 -1395 -1z m-931 -2975 c28 -3 57 -7 65 -9 8 -1 38 -6 65
-10 106 -17 327 -79 353 -99 6 -5 12 -7 12 -3 0 3 37 -13 83 -36 45 -23 85
-41 90 -40 4 1 7 -2 7 -7 0 -5 13 -14 30 -21 16 -7 38 -20 49 -29 10 -9 29
-23 41 -31 12 -8 36 -26 54 -40 l31 -25 -1 -1295 c-1 -712 -2 -1300 -3 -1306
-1 -10 -35 -45 -126 -131 -8 -7 -16 -13 -20 -13 -3 0 -16 -9 -28 -21 -33 -31
-150 -106 -196 -126 -23 -10 -41 -21 -41 -25 0 -5 -9 -8 -20 -8 -11 0 -20 -5
-20 -12 0 -6 -3 -9 -6 -5 -3 3 -26 -3 -51 -14 -53 -23 -174 -55 -236 -64 -23
-3 -55 -8 -71 -11 -85 -17 -402 -17 -511 0 -58 9 -139 26 -179 38 -23 6 -43
12 -46 13 -57 12 -235 95 -297 137 -23 15 -44 28 -48 28 -4 0 -12 6 -19 13 -7
6 -31 25 -52 41 -62 47 -204 195 -239 248 -5 8 -23 35 -40 59 -68 102 -151
284 -209 461 -28 86 -59 240 -71 361 -3 26 -8 68 -11 95 -8 67 -8 394 1 477 8
86 12 120 15 120 1 0 3 11 4 25 6 47 17 105 32 160 8 30 16 62 19 70 2 8 8 29
15 45 6 17 11 30 10 30 -1 0 3 13 9 28 6 16 11 30 11 33 0 2 16 39 36 81 20
43 40 87 45 98 5 11 15 29 21 39 7 11 28 45 47 75 111 181 319 370 511 465 41
21 87 44 102 52 15 8 29 14 30 14 2 -1 16 3 31 9 16 6 34 11 41 11 7 0 16 3
20 7 3 4 12 8 19 9 34 6 69 13 85 18 26 8 71 15 137 22 33 4 61 7 63 9 5 4
307 -4 357 -10z"/>
<path d="M5999 9232 l-56 -3 0 -384 c0 -272 3 -385 11 -386 6 0 184 -1 396 -2
l385 -2 0 -2722 c0 -2424 -1 -2723 -15 -2724 -8 -1 -179 -2 -380 -3 l-365 -1
-3 -388 -2 -387 994 0 c786 0 995 3 998 13 2 6 4 181 4 387 l-1 375 -193 0
c-185 0 -192 1 -193 20 0 11 -1 303 -1 650 l-1 629 24 6 c47 11 600 4 608 -8
4 -6 45 -53 91 -104 47 -50 96 -104 110 -120 14 -15 45 -49 70 -76 47 -51 207
-224 250 -272 14 -15 59 -65 100 -110 41 -46 91 -100 110 -120 19 -20 55 -58
79 -86 24 -27 65 -71 91 -99 25 -27 93 -102 150 -165 58 -63 116 -127 130
-141 14 -14 52 -56 85 -94 33 -37 88 -96 121 -131 34 -36 84 -91 111 -122 28
-31 72 -80 99 -109 27 -28 78 -84 114 -123 36 -40 92 -101 124 -136 l59 -64
492 0 493 0 0 384 c0 281 -3 386 -12 388 -6 2 -132 4 -281 4 l-270 -1 -30 31
c-16 18 -77 82 -135 144 -58 62 -118 127 -135 145 -111 118 -268 286 -295 315
-18 19 -94 100 -169 180 -147 156 -142 151 -311 331 -63 68 -143 152 -177 188
-35 36 -63 66 -63 67 0 2 -19 23 -42 47 -75 77 -176 186 -182 196 -6 9 40 59
309 336 85 88 373 384 645 665 41 42 94 98 118 124 23 25 47 46 52 46 6 0 10
4 10 8 0 5 62 72 138 149 l137 141 288 0 c159 0 291 3 294 6 8 8 8 755 0 762
-3 4 -171 6 -372 6 l-367 0 -101 -105 c-56 -58 -163 -168 -237 -244 -462 -476
-900 -927 -900 -928 0 -2 -384 -396 -505 -519 l-120 -122 -400 1 -400 1 -2
1742 c-1 958 1 1742 5 1742 8 0 6 205 -2 226 -3 7 -1 16 3 18 7 5 8 30 1 61
-1 6 -2 15 -1 20 5 29 2 376 -3 384 -4 5 -2 12 3 16 6 3 7 15 2 26 -7 21 -9
21 -767 23 -417 0 -784 0 -815 -2z"/>
</g>
</svg>
