<?xml version="1.0" encoding="utf-8"?>
<!-- Generator: Adobe Illustrator 23.0.3, SVG Export Plug-In . SVG Version: 6.00 Build 0)  -->
<svg version="1.1" id="Layer_1" xmlns="http://www.w3.org/2000/svg" xmlns:xlink="http://www.w3.org/1999/xlink" x="0px" y="0px"
	 viewBox="0 0 289 332" style="enable-background:new 0 0 289 332;" xml:space="preserve">
<style type="text/css">
	.st0{opacity:0.53;}
	.st1{fill:none;stroke:#408FDD;stroke-miterlimit:10;}
	.st2{fill:none;stroke:#408FDD;stroke-width:0.9733;stroke-miterlimit:10;}
	.st3{fill:none;stroke:#408FDD;stroke-width:0.9465;stroke-miterlimit:10;}
	.st4{fill:none;stroke:#408FDD;stroke-width:0.9198;stroke-miterlimit:10;}
	.st5{fill:none;stroke:#408FDD;stroke-width:0.893;stroke-miterlimit:10;}
	.st6{fill:none;stroke:#408FDD;stroke-width:0.8663;stroke-miterlimit:10;}
	.st7{fill:none;stroke:#408FDD;stroke-width:0.8396;stroke-miterlimit:10;}
	.st8{fill:none;stroke:#408FDD;stroke-width:0.8128;stroke-miterlimit:10;}
	.st9{fill:none;stroke:#408FDD;stroke-width:0.7861;stroke-miterlimit:10;}
	.st10{fill:none;stroke:#408FDD;stroke-width:0.7593;stroke-miterlimit:10;}
	.st11{fill:none;stroke:#408FDD;stroke-width:0.7326;stroke-miterlimit:10;}
	.st12{fill:none;stroke:#408FDD;stroke-width:0.7059;stroke-miterlimit:10;}
</style>
<g class="st0">
	<g>
		<g>
			<path class="st1" d="M115.93,186.94l-43.02,52v91.71H1.05V0.67h71.86v156.95h2.84l46.8-63.82l74.22-93.13h81.31l-111.1,135.68
				l121.02,194.3h-84.62L115.93,186.94z"/>
		</g>
	</g>
	<g>
		<g>
			<polygon class="st2" points="116.13,187.9 74.26,238.51 74.26,327.77 4.33,327.77 4.33,6.62 74.26,6.62 74.26,159.38 
				77.02,159.38 122.57,97.26 194.81,6.62 273.95,6.62 165.82,138.67 283.61,327.77 201.25,327.77 			"/>
		</g>
	</g>
	<g>
		<g>
			<polygon class="st3" points="116.34,188.87 75.62,238.09 75.62,324.9 7.6,324.9 7.6,12.57 75.62,12.57 75.62,161.12 78.3,161.12 
				122.6,100.72 192.86,12.57 269.82,12.57 164.67,140.99 279.22,324.9 199.12,324.9 			"/>
		</g>
	</g>
	<g>
		<g>
			<polygon class="st4" points="116.54,189.83 76.98,237.66 76.98,322.02 10.88,322.02 10.88,18.51 76.98,18.51 76.98,162.87 
				79.58,162.87 122.63,104.17 190.9,18.51 265.69,18.51 163.51,143.31 274.82,322.02 196.99,322.02 			"/>
		</g>
	</g>
	<g>
		<g>
			<polygon class="st5" points="116.75,190.8 78.33,237.24 78.33,319.14 14.16,319.14 14.16,24.46 78.33,24.46 78.33,164.62 
				80.86,164.62 122.66,107.63 188.94,24.46 261.56,24.46 162.35,145.62 270.42,319.14 194.85,319.14 			"/>
		</g>
	</g>
	<g>
		<g>
			<polygon class="st6" points="116.96,191.76 79.69,236.81 79.69,316.26 17.44,316.26 17.44,30.4 79.69,30.4 79.69,166.37 
				82.14,166.37 122.69,111.08 186.99,30.4 257.43,30.4 161.19,147.94 266.03,316.26 192.72,316.26 			"/>
		</g>
	</g>
	<g>
		<g>
			<polygon class="st7" points="117.16,192.73 81.04,236.39 81.04,313.39 20.71,313.39 20.71,36.35 81.04,36.35 81.04,168.12 
				83.42,168.12 122.72,114.54 185.03,36.35 253.3,36.35 160.03,150.26 261.63,313.39 190.59,313.39 			"/>
		</g>
	</g>
	<g>
		<g>
			<polygon class="st8" points="117.37,193.69 82.4,235.96 82.4,310.51 23.99,310.51 23.99,42.3 82.4,42.3 82.4,169.87 
				84.71,169.87 122.75,118 183.08,42.3 249.17,42.3 158.87,152.58 257.24,310.51 188.46,310.51 			"/>
		</g>
	</g>
	<g>
		<g>
			<polygon class="st9" points="117.57,194.66 83.76,235.54 83.76,307.63 27.27,307.63 27.27,48.24 83.76,48.24 83.76,171.62 
				85.99,171.62 122.78,121.45 181.12,48.24 245.04,48.24 157.71,154.9 252.84,307.63 186.32,307.63 			"/>
		</g>
	</g>
	<g>
		<g>
			<polygon class="st10" points="117.78,195.62 85.11,235.11 85.11,304.75 30.55,304.75 30.55,54.19 85.11,54.19 85.11,173.37 
				87.27,173.37 122.8,124.91 179.16,54.19 240.91,54.19 156.55,157.21 248.45,304.75 184.19,304.75 			"/>
		</g>
	</g>
	<g>
		<g>
			<polygon class="st11" points="117.98,196.59 86.47,234.69 86.47,301.88 33.82,301.88 33.82,60.13 86.47,60.13 86.47,175.12 
				88.55,175.12 122.83,128.36 177.21,60.13 236.78,60.13 155.39,159.53 244.05,301.88 182.06,301.88 			"/>
		</g>
	</g>
	<g>
		<g>
			<path class="st12" d="M118.19,197.56l-30.37,36.71V299H37.1V66.08h50.72v110.79h2l33.04-45.05l52.39-65.74h57.4l-78.42,95.77
				L239.65,299h-59.73L118.19,197.56z"/>
		</g>
	</g>
</g>
</svg>
