<?xml version="1.0" encoding="utf-8"?>
<!-- Generator: Adobe Illustrator 23.0.3, SVG Export Plug-In . SVG Version: 6.00 Build 0)  -->
<svg version="1.1" id="Layer_1" xmlns="http://www.w3.org/2000/svg" xmlns:xlink="http://www.w3.org/1999/xlink" x="0px" y="0px"
	 viewBox="0 0 1360 1580" style="enable-background:new 0 0 1360 1580;" xml:space="preserve">
<style type="text/css">
	.st0{opacity:0.25;}
</style>
<g class="st0">
	<path d="M282.91,1469.29l120.57-242.06c148.27,83.39,302.02,109.67,466.96,46.07c167.6-64.62,226.05-166.61,180.92-283.66
		c-33.85-87.79-112.7-133.78-263.53-97.01l-133.84,33.28c-295.32,74.15-515.42,18.45-613.89-236.93
		C-63.5,420.3,86.14,182.31,389.4,65.38C639.46-31.04,812.25-2.94,990.62,87.18L878.03,326.16
		c-104.65-57.43-249.39-84.13-398.37-26.68c-159.61,61.54-207.43,159.43-167.43,263.18c41.03,106.41,126,128.65,281.54,96.17
		l133.85-33.27c320.7-71.71,507.66,8.99,593.82,232.45c102.57,266.02-44.18,527.34-376.71,655.56
		C684.04,1614.09,475.83,1581.31,282.91,1469.29z"/>
</g>
</svg>
