<?xml version="1.0" encoding="utf-8"?>
<!-- Generator: Adobe Illustrator 23.0.3, SVG Export Plug-In . SVG Version: 6.00 Build 0)  -->
<svg version="1.1" id="Layer_1" xmlns="http://www.w3.org/2000/svg" xmlns:xlink="http://www.w3.org/1999/xlink" x="0px" y="0px"
	 viewBox="0 0 32 32" style="enable-background:new 0 0 32 32;" xml:space="preserve">
<style type="text/css">
	.st0{fill:#264DE4;}
	.st1{fill:#2965F1;}
	.st2{fill:#EBEBEB;}
	.st3{fill:#FFFFFF;}
</style>
<g id="layer1" transform="translate(-193.633,-276.3622)">
	<g id="g3013" transform="translate(119,276.3622)">
		<polygon id="polygon2989" class="st0" points="101.05,7.03 99.18,28.01 90.76,30.35 82.37,28.02 80.49,7.03 		"/>
		<polygon id="polygon2991" class="st1" points="97.58,26.68 99.18,8.75 90.77,8.75 90.77,28.56 		"/>
		<polygon id="polygon2993" class="st2" points="84.78,16.53 85.01,19.1 90.77,19.1 90.77,16.53 		"/>
		<polygon id="polygon2995" class="st2" points="90.77,11.32 90.77,11.32 84.32,11.32 84.55,13.9 90.77,13.9 		"/>
		<polygon id="polygon2997" class="st2" points="90.77,25.89 90.77,23.22 90.76,23.22 87.9,22.44 87.71,20.39 86.32,20.39 
			85.13,20.39 85.49,24.43 90.76,25.9 		"/>
		<path id="path2999" class="st3" d="M85.33,1.33h3.12v1.3h-1.81v1.3h1.81v1.3h-3.12V1.33z"/>
		<path id="path3001" class="st3" d="M89.07,1.33h3.12v1.13h-1.81v0.23h1.81V5.3h-3.12V4.11h1.81V3.88h-1.81V1.33z"/>
		<path id="path3003" class="st3" d="M92.81,1.33h3.12v1.13h-1.81v0.23h1.81V5.3h-3.12V4.11h1.81V3.88h-1.81V1.33z"/>
		<polygon id="polygon3005" class="st3" points="93.93,19.1 93.64,22.44 90.77,23.22 90.77,25.9 96.04,24.43 96.08,24 96.69,17.22 
			96.75,16.53 97.21,11.32 90.77,11.32 90.77,13.9 94.39,13.9 94.16,16.53 90.77,16.53 90.77,19.1 		"/>
	</g>
</g>
</svg>
