<?xml version="1.0" encoding="utf-8"?>
<!-- Generator: Adobe Illustrator 23.0.3, SVG Export Plug-In . SVG Version: 6.00 Build 0)  -->
<svg version="1.1" id="Layer_1" xmlns="http://www.w3.org/2000/svg" xmlns:xlink="http://www.w3.org/1999/xlink" x="0px" y="0px"
	 viewBox="0 0 32 32" style="enable-background:new 0 0 32 32;" xml:space="preserve">
<style type="text/css">
	.st0{fill:url(#SVGID_1_);}
	.st1{fill:url(#SVGID_2_);}
	.st2{fill:url(#SVGID_3_);}
	.st3{fill:url(#SVGID_4_);}
	.st4{fill:url(#SVGID_5_);}
	.st5{fill:url(#SVGID_6_);}
</style>
<g>
	
		<linearGradient id="SVGID_1_" gradientUnits="userSpaceOnUse" x1="-933.5107" y1="2151.2927" x2="-933.2875" y2="2151.0547" gradientTransform="matrix(82.4907 0 0 -81.4303 77019.0312 175183.9062)">
		<stop  offset="0" style="stop-color:#F9A03C"/>
		<stop  offset="1" style="stop-color:#F7974E"/>
	</linearGradient>
	<path class="st0" d="M31.03,22.35c0.01-0.13,0.02-0.27,0.03-0.4c0.01-0.16-9.64-9.32-9.64-9.32h-0.23
		C21.18,12.63,30.97,22.95,31.03,22.35L31.03,22.35L31.03,22.35z"/>
	
		<linearGradient id="SVGID_2_" gradientUnits="userSpaceOnUse" x1="-921.6576" y1="2126.969" x2="-921.2308" y2="2126.5525" gradientTransform="matrix(40.2105 0 0 -40.4121 37058.2031 85962.4844)">
		<stop  offset="0" style="stop-color:#F9A03C"/>
		<stop  offset="1" style="stop-color:#F7974E"/>
	</linearGradient>
	<path class="st1" d="M10.43,19.18c-0.01,0.03-0.03,0.06-0.04,0.08c-0.01,0.03-0.03,0.06-0.04,0.09c-0.31,0.64,4.31,5.15,4.68,4.61
		c0.02-0.02,0.03-0.05,0.05-0.07c0.02-0.03,0.04-0.06,0.06-0.08C15.43,23.34,10.56,18.88,10.43,19.18L10.43,19.18L10.43,19.18z"/>
	
		<linearGradient id="SVGID_3_" gradientUnits="userSpaceOnUse" x1="-923.205" y1="2127.5571" x2="-922.8252" y2="2127.1218" gradientTransform="matrix(41.0403 0 0 -39.9333 37894.3477 84973.4844)">
		<stop  offset="0" style="stop-color:#F9A03C"/>
		<stop  offset="1" style="stop-color:#F7974E"/>
	</linearGradient>
	<path class="st2" d="M16.95,25.52c-0.01,0.03-0.11,0.19-0.19,0.27c-0.01,0.03,4.51,4.51,4.51,4.51h0.41
		C21.67,30.3,17.43,25.71,16.95,25.52L16.95,25.52L16.95,25.52z"/>
	
		<linearGradient id="SVGID_4_" gradientUnits="userSpaceOnUse" x1="-939.2971" y1="2167.6411" x2="-939.212" y2="2167.5286" gradientTransform="matrix(255.8347 0 0 -242.016 240309.0938 524604.3125)">
		<stop  offset="0" style="stop-color:#F26D58"/>
		<stop  offset="1" style="stop-color:#F9A03C"/>
	</linearGradient>
	<path class="st3" d="M31.06,21.87c-0.21,4.69-4.09,8.43-8.83,8.43H21.6l-4.73-4.66c0.39-0.55,0.75-1.12,1.07-1.71h4.3
		c1.36,0,2.47-1.11,2.47-2.47c0-1.36-1.11-2.47-2.47-2.47H19.7c0.19-1.02,0.3-2.08,0.3-3.16c0-1.1-0.11-2.17-0.31-3.21h1.58
		l9.77,9.63C31.05,22.13,31.06,22,31.06,21.87L31.06,21.87L31.06,21.87z M3.01,1.33H0.44V7.7h2.57c4.49,0,8.14,3.65,8.14,8.14
		c0,1.22-0.27,2.38-0.76,3.42l4.69,4.62c1.54-2.3,2.44-5.07,2.44-8.04C17.52,7.84,11.01,1.33,3.01,1.33L3.01,1.33L3.01,1.33z"/>
	
		<linearGradient id="SVGID_5_" gradientUnits="userSpaceOnUse" x1="-937.6333" y1="2164.2251" x2="-937.5085" y2="2164.1431" gradientTransform="matrix(160.7307 0 0 -174.8133 150721.1875 378337.7188)">
		<stop  offset="0" style="stop-color:#B84E51"/>
		<stop  offset="1" style="stop-color:#F68E48"/>
	</linearGradient>
	<path class="st4" d="M22.24,1.33H11.83c2.54,1.55,4.65,3.75,6.08,6.37h4.33c1.36,0,2.47,1.11,2.47,2.47c0,1.36-1.11,2.47-2.47,2.47
		h-0.97l9.77,9.63c0.02-0.26,0.04-0.52,0.04-0.79c0-2.15-0.77-4.12-2.05-5.65c1.28-1.53,2.05-3.5,2.05-5.65
		C31.07,5.29,27.11,1.33,22.24,1.33L22.24,1.33L22.24,1.33z"/>
	
		<linearGradient id="SVGID_6_" gradientUnits="userSpaceOnUse" x1="-937.6065" y1="2154.7405" x2="-937.6006" y2="2154.592" gradientTransform="matrix(176.7653 0 0 -92.6293 165746.7188 199614.0312)">
		<stop  offset="0" style="stop-color:#F9A03C"/>
		<stop  offset="1" style="stop-color:#F7974E"/>
	</linearGradient>
	<path class="st5" d="M21.6,30.3h-9.69c1.95-1.2,3.64-2.8,4.96-4.66L21.6,30.3L21.6,30.3z M15.08,23.88l-4.69-4.62
		c-1.3,2.78-4.12,4.72-7.38,4.72H0.44v6.37h2.57C8.04,30.35,12.47,27.78,15.08,23.88L15.08,23.88L15.08,23.88z"/>
</g>
</svg>
