<?xml version="1.0" encoding="utf-8"?>
<!-- Generator: Adobe Illustrator 23.0.3, SVG Export Plug-In . SVG Version: 6.00 Build 0)  -->
<svg version="1.1" id="Layer_1" xmlns="http://www.w3.org/2000/svg" xmlns:xlink="http://www.w3.org/1999/xlink" x="0px" y="0px"
	 viewBox="0 0 45 30" style="enable-background:new 0 0 45 30;" xml:space="preserve">
<style type="text/css">
	.st0{fill:#FFFFFF;}
</style>
<g>
	<path class="st0" d="M20.16,1.5v3.02h-2.48v21.3h2.67v3.02h-5.94v-1.49c-0.59,0.6-1.27,1.06-2.04,1.4s-1.65,0.5-2.64,0.5
		c-1.23,0-2.38-0.21-3.44-0.64s-1.98-1.05-2.76-1.88s-1.39-1.84-1.83-3.04s-0.66-2.58-0.66-4.12c0-1.41,0.21-2.69,0.63-3.84
		s1.02-2.14,1.79-2.95s1.71-1.45,2.79-1.9s2.3-0.68,3.64-0.68c0.88,0,1.68,0.1,2.41,0.29s1.42,0.53,2.09,1.01V4.52V1.5H20.16z
		 M10.16,26.41c0.97,0,1.79-0.14,2.44-0.43s1.26-0.72,1.81-1.29v-10.2c-0.59-0.49-1.26-0.85-2.02-1.07s-1.54-0.33-2.34-0.33
		c-0.77,0-1.5,0.14-2.18,0.43s-1.27,0.71-1.78,1.26S5.17,16,4.88,16.79s-0.44,1.71-0.44,2.74c0,1.12,0.14,2.12,0.42,2.97
		s0.67,1.57,1.18,2.15s1.11,1.02,1.81,1.31S9.32,26.41,10.16,26.41z"/>
	<path class="st0" d="M23.34,1.5h6.42v3.02h-0.04v13.61h3.16l4.32-4.46l2.92-3.02h2.9v3.02h-2.3l-5.54,5.71l6.05,6.45h2.2v3.02
		h-3.85l-7.45-8.14h-2.41v5.12h1.51v3.02h-7.79v-3.02h2.99V4.52h-3.09V1.5z"/>
</g>
</svg>
