<?xml version="1.0" encoding="utf-8"?>
<!-- Generator: Adobe Illustrator 23.0.3, SVG Export Plug-In . SVG Version: 6.00 Build 0)  -->
<svg version="1.1" id="Layer_1" xmlns="http://www.w3.org/2000/svg" xmlns:xlink="http://www.w3.org/1999/xlink" x="0px" y="0px"
	 viewBox="0 0 32 32" style="enable-background:new 0 0 32 32;" xml:space="preserve">
<style type="text/css">
	.st0{fill-rule:evenodd;clip-rule:evenodd;fill:#FFFFFF;}
</style>
<path class="st0" d="M16.18,1.4C7.96,1.4,1.3,8.05,1.3,16.27c0,6.58,4.26,12.14,10.17,14.11c0.74,0.13,1.02-0.32,1.02-0.71
	c0-0.35-0.02-1.52-0.02-2.77c-3.74,0.69-4.7-0.91-5-1.75c-0.17-0.43-0.89-1.75-1.52-2.1c-0.52-0.28-1.26-0.97-0.02-0.99
	c1.17-0.02,2.01,1.08,2.29,1.52c1.34,2.25,3.48,1.62,4.33,1.23c0.13-0.97,0.52-1.62,0.95-1.99c-3.31-0.37-6.77-1.65-6.77-7.34
	c0-1.62,0.58-2.96,1.52-4C8.11,11.12,7.59,9.6,8.4,7.55c0,0,1.25-0.39,4.09,1.52c1.19-0.33,2.45-0.5,3.72-0.5
	c1.26,0,2.53,0.17,3.72,0.5c2.84-1.93,4.09-1.52,4.09-1.52c0.82,2.05,0.3,3.57,0.15,3.94c0.95,1.04,1.52,2.36,1.52,4
	c0,5.71-3.48,6.97-6.79,7.34c0.54,0.46,1,1.36,1,2.75c0,1.99-0.02,3.59-0.02,4.09c0,0.39,0.28,0.86,1.02,0.71
	c5.88-1.97,10.13-7.55,10.13-14.11C31.05,8.05,24.39,1.4,16.18,1.4z"/>
</svg>
