<?xml version="1.0" encoding="utf-8"?>
<!-- Generator: Adobe Illustrator 23.0.3, SVG Export Plug-In . SVG Version: 6.00 Build 0)  -->
<svg version="1.1" id="Layer_1" xmlns="http://www.w3.org/2000/svg" xmlns:xlink="http://www.w3.org/1999/xlink" x="0px" y="0px"
	 viewBox="0 0 32 32" style="enable-background:new 0 0 32 32;" xml:space="preserve">
<style type="text/css">
	.st0{fill:#FFFFFF;}
	.st1{fill:#E44D26;}
	.st2{fill:#F16529;}
	.st3{fill:#EBEBEB;}
</style>
<path class="st0" d="M7.34,1.33h1.3v1.29h1.2V1.33h1.3v3.91h-1.3v-1.3H8.65v1.3H7.34 M12.87,2.64h-1.15v-1.3h3.61v1.3h-1.16v2.61
	h-1.3 M15.9,1.33h1.37l0.84,1.38l0.84-1.38h1.37v3.91h-1.3V3.31L18.1,4.71l-0.91-1.41v1.94H15.9 M20.96,1.33h1.3v2.62h1.85v1.29
	h-3.15"/>
<path class="st1" d="M7.29,28.03L5.42,7.03h20.56l-1.87,20.98l-8.43,2.33"/>
<path class="st2" d="M15.7,28.56V8.76h8.4l-1.6,17.91"/>
<path class="st3" d="M9.24,11.32h6.46v2.57h-3.64l0.24,2.64h3.4v2.57H9.95 M10.06,20.39h2.58l0.18,2.06l2.88,0.77v2.69l-5.28-1.47"
	/>
<path class="st0" d="M22.14,11.32h-6.45v2.57h6.21 M21.67,16.53h-5.98v2.57h3.17l-0.3,3.34l-2.87,0.77v2.67l5.27-1.46"/>
</svg>
