<?xml version="1.0" encoding="utf-8"?>
<!-- Generator: Adobe Illustrator 23.0.3, SVG Export Plug-In . SVG Version: 6.00 Build 0)  -->
<svg version="1.1" id="Layer_1" xmlns="http://www.w3.org/2000/svg" xmlns:xlink="http://www.w3.org/1999/xlink" x="0px" y="0px"
	 viewBox="0 0 32 32" style="enable-background:new 0 0 32 32;" xml:space="preserve">
<style type="text/css">
	.st0{fill:#F7DF1E;}
</style>
<rect x="1.54" y="1.33" class="st0" width="29.02" height="29.02"/>
<path d="M21.03,24c0.58,0.95,1.34,1.66,2.69,1.66c1.13,0,1.85-0.56,1.85-1.34c0-0.93-0.74-1.27-1.99-1.81l-0.68-0.29
	c-1.97-0.84-3.27-1.89-3.27-4.11c0-2.04,1.56-3.6,3.99-3.6c1.73,0,2.98,0.6,3.88,2.18l-2.12,1.36c-0.47-0.84-0.97-1.17-1.75-1.17
	c-0.8,0-1.3,0.51-1.3,1.17c0,0.82,0.51,1.15,1.68,1.66l0.68,0.29c2.32,0.99,3.62,2.01,3.62,4.28c0,2.45-1.93,3.8-4.52,3.8
	c-2.53,0-4.17-1.21-4.97-2.79L21.03,24z M11.4,24.24c0.43,0.76,0.82,1.4,1.75,1.4c0.9,0,1.46-0.35,1.46-1.71v-9.27h2.73v9.31
	c0,2.82-1.66,4.11-4.07,4.11c-2.18,0-3.45-1.13-4.09-2.49L11.4,24.24z"/>
</svg>
