<?xml version="1.0" encoding="utf-8"?>
<!-- Generator: Adobe Illustrator 23.0.3, SVG Export Plug-In . SVG Version: 6.00 Build 0)  -->
<svg version="1.1" id="Layer_1" xmlns="http://www.w3.org/2000/svg" xmlns:xlink="http://www.w3.org/1999/xlink" x="0px" y="0px"
	 viewBox="0 0 35 35" style="enable-background:new 0 0 35 35;" xml:space="preserve">
<style type="text/css">
	.st0{fill:#61DAFB;}
</style>
<g>
	<path class="st0" d="M27.71,12.72c-0.34-0.12-0.69-0.23-1.05-0.33c0.06-0.24,0.11-0.48,0.16-0.71c0.79-3.85,0.27-6.96-1.5-7.98
		c-1.7-0.98-4.48,0.04-7.28,2.48c-0.27,0.23-0.54,0.48-0.81,0.74c-0.18-0.17-0.36-0.34-0.54-0.5c-2.94-2.61-5.89-3.71-7.66-2.69
		c-1.7,0.98-2.2,3.9-1.49,7.55C7.62,11.64,7.7,12,7.79,12.37c-0.42,0.12-0.82,0.24-1.21,0.38c-3.45,1.2-5.65,3.09-5.65,5.04
		c0,2.02,2.36,4.04,5.95,5.27c0.28,0.1,0.58,0.19,0.88,0.28c-0.1,0.4-0.18,0.78-0.26,1.16c-0.68,3.59-0.15,6.44,1.54,7.41
		c1.75,1.01,4.68-0.03,7.54-2.53c0.23-0.2,0.45-0.41,0.68-0.63c0.29,0.28,0.59,0.55,0.88,0.8c2.77,2.38,5.5,3.34,7.19,2.36
		c1.75-1.01,2.31-4.07,1.58-7.79c-0.06-0.28-0.12-0.57-0.2-0.87c0.21-0.06,0.41-0.12,0.61-0.19c3.73-1.24,6.16-3.24,6.16-5.28
		C33.5,15.83,31.23,13.93,27.71,12.72z M18.96,7.23c2.4-2.09,4.65-2.92,5.68-2.33c1.09,0.63,1.51,3.17,0.83,6.49
		c-0.04,0.21-0.09,0.43-0.15,0.65c-1.35-0.31-2.82-0.54-4.35-0.69c-0.89-1.27-1.82-2.43-2.75-3.44C18.46,7.68,18.71,7.45,18.96,7.23
		z M11.29,17.82c0.42-0.88,0.88-1.76,1.39-2.63l0,0c0.5-0.87,1.03-1.71,1.58-2.51c0.97-0.07,1.96-0.11,2.97-0.11l0,0
		c1.01,0,2,0.04,2.97,0.11c0.54,0.79,1.06,1.63,1.57,2.51c0.51,0.88,0.98,1.76,1.4,2.61c-0.42,0.87-0.89,1.75-1.4,2.64
		c-0.51,0.88-1.03,1.73-1.56,2.52c-0.97,0.07-1.96,0.1-2.98,0.1c-1.01,0-2-0.03-2.95-0.09c-0.55-0.81-1.09-1.65-1.59-2.52l0,0
		C12.17,19.57,11.71,18.69,11.29,17.82z M10.55,19.46c0.29,0.56,0.6,1.13,0.92,1.68l0,0c0.33,0.57,0.67,1.13,1.02,1.67
		c-1.07-0.12-2.07-0.28-3-0.48C9.78,21.4,10.14,20.44,10.55,19.46z M10.55,16.18c-0.41-0.96-0.75-1.91-1.03-2.82
		c0.93-0.21,1.92-0.38,2.95-0.51c-0.34,0.53-0.68,1.08-1,1.64v0C11.15,15.06,10.84,15.62,10.55,16.18z M22.97,21.13
		c0.33-0.58,0.65-1.15,0.94-1.73c0.44,0.99,0.8,1.95,1.09,2.86c-0.94,0.22-1.96,0.39-3.04,0.52C22.31,22.25,22.64,21.7,22.97,21.13z
		 M23.9,16.19c-0.3-0.56-0.61-1.13-0.94-1.69c-0.32-0.56-0.65-1.1-0.99-1.63c1.04,0.13,2.03,0.31,2.97,0.52
		C24.66,14.28,24.31,15.22,23.9,16.19z M17.23,8.91c0.64,0.7,1.28,1.47,1.92,2.31c-0.64-0.03-1.28-0.05-1.93-0.05
		c-0.64,0-1.28,0.02-1.92,0.04C15.93,10.39,16.58,9.62,17.23,8.91z M9.73,4.94c1.09-0.63,3.5,0.27,6.04,2.52
		c0.16,0.14,0.33,0.29,0.49,0.45c-0.95,1.02-1.88,2.17-2.77,3.43c-1.53,0.14-3,0.37-4.35,0.68c-0.08-0.34-0.16-0.68-0.22-1
		C8.3,7.89,8.71,5.54,9.73,4.94z M8.14,21.99c-0.28-0.08-0.55-0.16-0.8-0.25c-1.59-0.54-2.9-1.25-3.8-2.02
		c-0.81-0.69-1.22-1.38-1.22-1.94c0-1.19,1.77-2.7,4.72-3.73c0.36-0.12,0.73-0.24,1.12-0.35c0.41,1.33,0.94,2.71,1.59,4.11
		C9.1,19.24,8.56,20.65,8.14,21.99z M15.68,28.33c-1.26,1.1-2.53,1.89-3.65,2.28c-1,0.35-1.8,0.36-2.28,0.09
		c-1.03-0.59-1.45-2.88-0.87-5.95c0.07-0.35,0.15-0.71,0.24-1.08c1.33,0.3,2.81,0.51,4.39,0.64c0.9,1.27,1.84,2.43,2.8,3.45
		C16.1,27.96,15.89,28.15,15.68,28.33z M17.27,26.76c-0.66-0.71-1.32-1.5-1.96-2.34c0.62,0.02,1.26,0.04,1.91,0.04
		c0.66,0,1.32-0.01,1.97-0.04C18.55,25.27,17.91,26.06,17.27,26.76z M25.72,28.7c-0.19,1.05-0.58,1.74-1.07,2.02
		c-1.03,0.59-3.22-0.18-5.59-2.21c-0.27-0.23-0.54-0.48-0.82-0.75c0.92-1,1.83-2.17,2.73-3.47c1.57-0.14,3.06-0.37,4.41-0.68
		c0.07,0.27,0.13,0.53,0.18,0.79C25.89,26.05,25.94,27.53,25.72,28.7z M26.9,21.75c-0.18,0.06-0.36,0.12-0.55,0.17
		c-0.41-1.3-0.97-2.69-1.65-4.13c0.65-1.4,1.18-2.77,1.58-4.07c0.33,0.1,0.66,0.2,0.97,0.31c3.01,1.04,4.85,2.57,4.85,3.75
		C32.11,19.05,30.12,20.68,26.9,21.75z"/>
	<path class="st0" d="M17.22,20.7c1.61,0,2.91-1.3,2.91-2.91c0-1.61-1.3-2.91-2.91-2.91c-1.61,0-2.91,1.3-2.91,2.91
		C14.31,19.39,15.61,20.7,17.22,20.7z"/>
</g>
</svg>
