<?xml version="1.0" encoding="utf-8"?>
<!-- Generator: Adobe Illustrator 23.0.3, SVG Export Plug-In . SVG Version: 6.00 Build 0)  -->
<svg version="1.1" id="Layer_1" xmlns="http://www.w3.org/2000/svg" xmlns:xlink="http://www.w3.org/1999/xlink" x="0px" y="0px"
	 viewBox="0 0 51 131" style="enable-background:new 0 0 51 131;" xml:space="preserve">
<style type="text/css">
	.st0{fill:#FFFFFF;}
	.st1{fill:#9FB9CE;}
</style>
<g>
	<g>
		<path class="st0" d="M10.53,45.29v22.5l-5-3.5v-22.5l-4.98-3.48v-7.5l14.98,10.48v7.5L10.53,45.29z"/>
	</g>
	<polygon class="st1" points="0.55,23.31 50.55,58.31 50.55,50.81 0.55,15.81 	"/>
	<polygon class="st0" points="0.55,8.31 50.55,43.31 50.55,35.81 0.55,0.81 	"/>
	<path class="st0" d="M17.8,42.88v30l7.12,4.98c3.31,2.32,7.87-0.05,7.87-4.1v-20.4L17.8,42.88z M27.79,72.37l-4.99-3.49v-15
		l4.99,3.49V72.37z"/>
	<path class="st0" d="M35.55,55.3v71.73l5,3.5l0-41.73l2.14,1.5c3.31,2.32,7.87-0.05,7.87-4.1v-20.4L35.55,55.3z M45.55,84.8l-5-3.5
		l0-15l5,3.5L45.55,84.8z"/>
</g>
</svg>
